{
  "asset": { "version": "2.0", "generator": "chaind-blitz" },
  "scene": 0,
  "scenes": [{ "nodes": [0] }],
  "nodes": [
    { "mesh": 0, "translation": [0, 1.1, 0] }
  ],
  "meshes": [{
    "primitives": [{
      "attributes": { "POSITION": 0, "NORMAL": 1 },
      "indices": 2,
      "material": 0
    }]
  }],
  "materials": [{
    "pbrMetallicRoughness": {
      "baseColorFactor": [0.79, 0.64, 0.15, 1],
      "metallicFactor": 0.35,
      "roughnessFactor": 0.4
    },
    "emissiveFactor": [0.35, 0.28, 0.05]
  }],
  "accessors": [
    { "bufferView": 0, "componentType": 5126, "count": 8, "type": "VEC3", "min": [-0.18, 0, -0.18], "max": [0.18, 2.2, 0.18] },
    { "bufferView": 1, "componentType": 5126, "count": 8, "type": "VEC3" },
    { "bufferView": 2, "componentType": 5123, "count": 36, "type": "SCALAR" }
  ],
  "bufferViews": [
    { "buffer": 0, "byteOffset": 0, "byteLength": 96 },
    { "buffer": 0, "byteOffset": 96, "byteLength": 96 },
    { "buffer": 0, "byteOffset": 192, "byteLength": 72 }
  ],
  "buffers": [{ "uri": "lamp.bin", "byteLength": 264 }]
}
